<svg id="visual" viewBox="0 0 900 600" width="900" height="600" xmlns="http://www.w3.org/2000/svg" xmlns:xlink="http://www.w3.org/1999/xlink" version="1.1"><rect x="0" y="0" width="900" height="600" fill="#002233"></rect><path d="M0 416L25 419.2C50 422.3 100 428.7 150 410.8C200 393 250 351 300 321.3C350 291.7 400 274.3 450 295.5C500 316.7 550 376.3 600 380.5C650 384.7 700 333.3 750 288.2C800 243 850 204 875 184.5L900 165L900 601L875 601C850 601 800 601 750 601C700 601 650 601 600 601C550 601 500 601 450 601C400 601 350 601 300 601C250 601 200 601 150 601C100 601 50 601 25 601L0 601Z" fill="#233555" stroke-linecap="round" stroke-linejoin="miter"></path></svg>